<svg xmlns="http://www.w3.org/2000/svg" xmlns:xlink="http://www.w3.org/1999/xlink" width="55" height="29.303" viewBox="0 0 55 29.303">
  <defs>
    <clipPath id="clip-path">
      <rect id="Retângulo_512" data-name="Retângulo 512" width="55" height="29.303" fill="#141414"/>
    </clipPath>
  </defs>
  <g id="Grupo_869" data-name="Grupo 869" transform="translate(0 0)">
    <g id="Grupo_861" data-name="Grupo 861" transform="translate(0 0)" clip-path="url(#clip-path)">
      <path id="Caminho_777" data-name="Caminho 777" d="M26.252,29.207A9.26,9.26,0,0,1,17,19.956a9.136,9.136,0,0,1,.967-4.1.5.5,0,0,1,.04-.093L25.78,1.742a.561.561,0,0,1,.944,0L34.5,15.761a.521.521,0,0,1,.041.094,9.142,9.142,0,0,1,.966,4.1,9.261,9.261,0,0,1-9.25,9.25m-7.259-13a.5.5,0,0,1-.024.055,8.078,8.078,0,0,0-.888,3.69,8.172,8.172,0,1,0,16.343,0,8.084,8.084,0,0,0-.888-3.69.386.386,0,0,1-.024-.056l-7.26-13.1Z" transform="translate(-7.834 -0.684)" fill="#141414"/>
      <path id="Caminho_778" data-name="Caminho 778" d="M76.1,28.032a.539.539,0,0,1-.473-.28,6,6,0,0,1,.92-7.212.539.539,0,0,1,.72.8,4.9,4.9,0,0,0-.695,5.892.54.54,0,0,1-.472.8" transform="translate(-34.486 -9.401)" fill="#141414"/>
      <path id="Caminho_779" data-name="Caminho 779" d="M88.447,25.67a1.033,1.033,0,1,1,1.034-1.034,1.035,1.035,0,0,1-1.034,1.034m0-1.078a.045.045,0,0,0-.045.045c0,.05.09.05.09,0a.044.044,0,0,0-.045-.045" transform="translate(-40.279 -10.876)" fill="#141414"/>
      <path id="Caminho_780" data-name="Caminho 780" d="M75.176,13.922c-1.845-3.254-6.742-5.913-12.6-7.378-.481-.948-2.7-4.964-6.446-6.5a.541.541,0,0,0-.693.271,11.7,11.7,0,0,1-6.451,5.175c-.642.064-1.279.142-1.907.242-1.145.182-2.182.407-3.136.658l.538.97c.845-.212,1.763-.4,2.768-.562a39.1,39.1,0,0,1,14.731.675.538.538,0,0,0,.191.046c5.56,1.348,10.2,3.8,12,6.816a4.754,4.754,0,0,1-1.59,2.951c-4.2,4.275-13.294,6.512-20.1,6.512a15.786,15.786,0,0,1-3.715-.52,10.731,10.731,0,0,1-.456,1,17.146,17.146,0,0,0,4.171.6c.8,0,1.577-.032,2.349-.078a8.964,8.964,0,0,1-1.86,3.631.539.539,0,0,0,.42.878l.054,0c.274-.028,6.625-.731,8.808-5.662,5.1-1.321,9.044-3.51,11.1-5.6a5.6,5.6,0,0,0,1.9-3.86.544.544,0,0,0-.07-.257m-23.331-8.6a12.305,12.305,0,0,0,4.309-4.087,13.1,13.1,0,0,1,5,4.98,41.558,41.558,0,0,0-9.305-.893M54.6,27.987a9.035,9.035,0,0,0,1.332-3.268,38.824,38.824,0,0,0,4.915-.746c-1.557,2.538-4.541,3.6-6.247,4.013" transform="translate(-20.247 0)" fill="#141414"/>
      <path id="Caminho_781" data-name="Caminho 781" d="M7.55,23.237c0-.015,0-.03,0-.045a35.013,35.013,0,0,0-5.48,2.95,31.355,31.355,0,0,0,2.647-7.115c.592-2.808-.487-6.344-1.282-8.409a22.554,22.554,0,0,1,2.917,2.8,9.3,9.3,0,0,0,3.525,2.818l.537-.968a7.867,7.867,0,0,1-3.266-2.579A19.512,19.512,0,0,0,2.5,8.679a.539.539,0,0,0-.759.7c.027.056,2.722,5.642,1.926,9.424A34.919,34.919,0,0,1,.076,27.579a.539.539,0,0,0,.787.706A39.058,39.058,0,0,1,7.606,24.34a10.975,10.975,0,0,1-.056-1.1" transform="translate(0 -3.965)" fill="#141414"/>
      <path id="Caminho_782" data-name="Caminho 782" d="M28.786,41.448a5.485,5.485,0,0,1-5.478-5.479.539.539,0,1,1,1.078,0,4.405,4.405,0,0,0,4.4,4.4.539.539,0,0,1,0,1.078" transform="translate(-10.74 -16.325)" fill="#141414"/>
    </g>
  </g>
</svg>
